<svg width="30" height="31" viewBox="0 0 30 31" fill="none" xmlns="http://www.w3.org/2000/svg">
<path d="M5.32045 21.2424C3.92461 18.8874 3.43636 16.1039 3.94737 13.4144C4.45837 10.725 5.93348 8.31453 8.09578 6.6356C10.2581 4.95666 12.9588 4.12472 15.691 4.29594C18.4233 4.46717 20.999 5.6298 22.9348 7.56556C24.8705 9.50131 26.0332 12.0771 26.2044 14.8093C26.3756 17.5415 25.5437 20.2423 23.8647 22.4046C22.1858 24.5669 19.7754 26.042 17.0859 26.553C14.3964 27.064 11.6129 26.5757 9.25795 25.1799V25.1799L5.36732 26.2815C5.20792 26.3281 5.03891 26.331 4.87801 26.2898C4.71711 26.2486 4.57025 26.165 4.45281 26.0475C4.33538 25.9301 4.2517 25.7832 4.21054 25.6223C4.16938 25.4614 4.17226 25.2924 4.21888 25.133L5.32045 21.2424Z" stroke="url(#paint0_linear_98_123)" stroke-width="0.7" stroke-linecap="round" stroke-linejoin="round"/>
<path d="M17.8244 22.0628C16.5909 22.0659 15.3689 21.8252 14.2286 21.3545C13.0884 20.8839 12.0524 20.1926 11.1801 19.3204C10.3079 18.4481 9.61657 17.4121 9.14594 16.2718C8.67531 15.1316 8.43462 13.9096 8.43771 12.6761C8.44081 11.8078 8.78788 10.9763 9.4029 10.3634C10.0179 9.75061 10.8507 9.40651 11.719 9.40652V9.40652C11.8622 9.40538 12.0031 9.44287 12.1268 9.51505C12.2506 9.58722 12.3526 9.69142 12.4221 9.81668L13.7932 12.2073C13.8747 12.3526 13.9166 12.5169 13.9145 12.6835C13.9124 12.8501 13.8666 13.0133 13.7815 13.1565L12.6799 14.9964C13.2441 16.2516 14.2489 17.2563 15.5041 17.8206L17.344 16.719C17.4872 16.6339 17.6504 16.588 17.817 16.586C17.9836 16.5839 18.1479 16.6258 18.2932 16.7073L20.6838 18.0784C20.8091 18.1479 20.9133 18.2499 20.9854 18.3736C21.0576 18.4974 21.0951 18.6383 21.094 18.7815C21.0909 19.6488 20.7458 20.4798 20.1337 21.0942C19.5215 21.7085 18.6917 22.0566 17.8244 22.0628V22.0628Z" stroke="url(#paint1_linear_98_123)" stroke-width="0.7" stroke-linecap="round" stroke-linejoin="round"/>
<defs>
<linearGradient id="paint0_linear_98_123" x1="14.9881" y1="4.27393" x2="14.9881" y2="26.7505" gradientUnits="userSpaceOnUse">
<stop stop-color="#E5306D" stop-opacity="0.9"/>
<stop offset="0.484375" stop-color="#D23A6E" stop-opacity="0.9"/>
<stop offset="1" stop-color="#BD3161" stop-opacity="0.8"/>
</linearGradient>
<linearGradient id="paint1_linear_98_123" x1="14.7658" y1="9.40649" x2="14.7658" y2="22.0628" gradientUnits="userSpaceOnUse">
<stop stop-color="#E5306D" stop-opacity="0.9"/>
<stop offset="0.484375" stop-color="#D23A6E" stop-opacity="0.9"/>
<stop offset="1" stop-color="#BD3161" stop-opacity="0.8"/>
</linearGradient>
</defs>
</svg>
