<svg width="1024" height="100" viewBox="0 0 1024 100" fill="none" xmlns="http://www.w3.org/2000/svg">
<path d="M0 76L10 73.7C20 71.3 40 66.7 60 58.7C80 50.7 100 39.3 120.267 39.5C140.4 39.7 160.933 51.3 181.067 55.5C201.333 59.7 221.333 56.3 241.333 58C261.333 59.7 281.333 66.3 301.333 69C321.333 71.7 341.333 70.3 361.333 70.5C381.333 70.7 401.333 72.3 421.333 66.7C441.333 61 461.333 48 481.6 41.5C501.733 35 522.267 35 542.4 39.3C562.667 43.7 582.667 52.3 602.667 54.3C622.667 56.3 642.667 51.7 662.667 48.2C682.667 44.7 702.667 42.3 722.667 39.5C742.667 36.7 762.667 33.3 782.667 35.8C802.667 38.3 822.667 46.7 842.933 51C863.067 55.3 883.6 55.7 903.733 57.2C924 58.7 944 61.3 964 58.5C984 55.7 1004 47.3 1014 43.2L1024 39V0H1014C1004 0 984 0 964 0C944 0 924 0 903.733 0C883.6 0 863.067 0 842.933 0C822.667 0 802.667 0 782.667 0C762.667 0 742.667 0 722.667 0C702.667 0 682.667 0 662.667 0C642.667 0 622.667 0 602.667 0C582.667 0 562.667 0 542.4 0C522.267 0 501.733 0 481.6 0C461.333 0 441.333 0 421.333 0C401.333 0 381.333 0 361.333 0C341.333 0 321.333 0 301.333 0C281.333 0 261.333 0 241.333 0C221.333 0 201.333 0 181.067 0C160.933 0 140.4 0 120.267 0C100 0 80 0 60 0C40 0 20 0 10 0H0V76Z" fill="#FA7268"/>
<path d="M0 75L10 69.2C20 63.3 40 51.7 60 43.7C80 35.7 100 31.3 120.267 29.7C140.4 28 160.933 29 181.067 35.3C201.333 41.7 221.333 53.3 241.333 55.2C261.333 57 281.333 49 301.333 44.2C321.333 39.3 341.333 37.7 361.333 37.7C381.333 37.7 401.333 39.3 421.333 42.3C441.333 45.3 461.333 49.7 481.6 48.7C501.733 47.7 522.267 41.3 542.4 39.3C562.667 37.3 582.667 39.7 602.667 43.7C622.667 47.7 642.667 53.3 662.667 50.2C682.667 47 702.667 35 722.667 33.3C742.667 31.7 762.667 40.3 782.667 48.3C802.667 56.3 822.667 63.7 842.933 61.2C863.067 58.7 883.6 46.3 903.733 45.2C924 44 944 54 964 54.3C984 54.7 1004 45.3 1014 40.7L1024 36V0H1014C1004 0 984 0 964 0C944 0 924 0 903.733 0C883.6 0 863.067 0 842.933 0C822.667 0 802.667 0 782.667 0C762.667 0 742.667 0 722.667 0C702.667 0 682.667 0 662.667 0C642.667 0 622.667 0 602.667 0C582.667 0 562.667 0 542.4 0C522.267 0 501.733 0 481.6 0C461.333 0 441.333 0 421.333 0C401.333 0 381.333 0 361.333 0C341.333 0 321.333 0 301.333 0C281.333 0 261.333 0 241.333 0C221.333 0 201.333 0 181.067 0C160.933 0 140.4 0 120.267 0C100 0 80 0 60 0C40 0 20 0 10 0H0V75Z" fill="#F36567"/>
<path d="M0 32L10 35.5C20 39 40 46 60 44.5C80 43 100 33 120.267 34.3C140.4 35.7 160.933 48.3 181.067 48.8C201.333 49.3 221.333 37.7 241.333 35.5C261.333 33.3 281.333 40.7 301.333 42.5C321.333 44.3 341.333 40.7 361.333 41C381.333 41.3 401.333 45.7 421.333 47C441.333 48.3 461.333 46.7 481.6 48.5C501.733 50.3 522.267 55.7 542.4 52.2C562.667 48.7 582.667 36.3 602.667 33.2C622.667 30 642.667 36 662.667 36C682.667 36 702.667 30 722.667 27.7C742.667 25.3 762.667 26.7 782.667 29.2C802.667 31.7 822.667 35.3 842.933 36C863.067 36.7 883.6 34.3 903.733 37.2C924 40 944 48 964 52.8C984 57.7 1004 59.3 1014 60.2L1024 61V0H1014C1004 0 984 0 964 0C944 0 924 0 903.733 0C883.6 0 863.067 0 842.933 0C822.667 0 802.667 0 782.667 0C762.667 0 742.667 0 722.667 0C702.667 0 682.667 0 662.667 0C642.667 0 622.667 0 602.667 0C582.667 0 562.667 0 542.4 0C522.267 0 501.733 0 481.6 0C461.333 0 441.333 0 421.333 0C401.333 0 381.333 0 361.333 0C341.333 0 321.333 0 301.333 0C281.333 0 261.333 0 241.333 0C221.333 0 201.333 0 181.067 0C160.933 0 140.4 0 120.267 0C100 0 80 0 60 0C40 0 20 0 10 0H0V32Z" fill="#EB5967"/>
<path d="M0 20L10 19.7C20 19.3 40 18.7 60 23.7C80 28.7 100 39.3 120.267 44.2C140.4 49 160.933 48 181.067 44.8C201.333 41.7 221.333 36.3 241.333 31.7C261.333 27 281.333 23 301.333 21.7C321.333 20.3 341.333 21.7 361.333 22C381.333 22.3 401.333 21.7 421.333 23.5C441.333 25.3 461.333 29.7 481.6 34.5C501.733 39.3 522.267 44.7 542.4 45C562.667 45.3 582.667 40.7 602.667 40.3C622.667 40 642.667 44 662.667 42.7C682.667 41.3 702.667 34.7 722.667 32.2C742.667 29.7 762.667 31.3 782.667 31C802.667 30.7 822.667 28.3 842.933 27.3C863.067 26.3 883.6 26.7 903.733 29.5C924 32.3 944 37.7 964 37.8C984 38 1004 33 1014 30.5L1024 28V0H1014C1004 0 984 0 964 0C944 0 924 0 903.733 0C883.6 0 863.067 0 842.933 0C822.667 0 802.667 0 782.667 0C762.667 0 742.667 0 722.667 0C702.667 0 682.667 0 662.667 0C642.667 0 622.667 0 602.667 0C582.667 0 562.667 0 542.4 0C522.267 0 501.733 0 481.6 0C461.333 0 441.333 0 421.333 0C401.333 0 381.333 0 361.333 0C341.333 0 321.333 0 301.333 0C281.333 0 261.333 0 241.333 0C221.333 0 201.333 0 181.067 0C160.933 0 140.4 0 120.267 0C100 0 80 0 60 0C40 0 20 0 10 0H0V20Z" fill="#E34C67"/>
<path d="M0 36L10 37C20 38 40 40 60 39.2C80 38.3 100 34.7 120.267 32.8C140.4 31 160.933 31 181.067 30.2C201.333 29.3 221.333 27.7 241.333 26.5C261.333 25.3 281.333 24.7 301.333 25.8C321.333 27 341.333 30 361.333 29C381.333 28 401.333 23 421.333 23.3C441.333 23.7 461.333 29.3 481.6 31.7C501.733 34 522.267 33 542.4 31.5C562.667 30 582.667 28 602.667 25.5C622.667 23 642.667 20 662.667 20C682.667 20 702.667 23 722.667 24C742.667 25 762.667 24 782.667 21.5C802.667 19 822.667 15 842.933 15.5C863.067 16 883.6 21 903.733 26.2C924 31.3 944 36.7 964 39.2C984 41.7 1004 41.3 1014 41.2L1024 41V0H1014C1004 0 984 0 964 0C944 0 924 0 903.733 0C883.6 0 863.067 0 842.933 0C822.667 0 802.667 0 782.667 0C762.667 0 742.667 0 722.667 0C702.667 0 682.667 0 662.667 0C642.667 0 622.667 0 602.667 0C582.667 0 562.667 0 542.4 0C522.267 0 501.733 0 481.6 0C461.333 0 441.333 0 421.333 0C401.333 0 381.333 0 361.333 0C341.333 0 321.333 0 301.333 0C281.333 0 261.333 0 241.333 0C221.333 0 201.333 0 181.067 0C160.933 0 140.4 0 120.267 0C100 0 80 0 60 0C40 0 20 0 10 0H0V36Z" fill="#DA3F67"/>
<path d="M0 31L10 30.7C20 30.3 40 29.7 60 27.5C80 25.3 100 21.7 120.267 21.2C140.4 20.7 160.933 23.3 181.067 24.2C201.333 25 221.333 24 241.333 24.2C261.333 24.3 281.333 25.7 301.333 25.8C321.333 26 341.333 25 361.333 23.7C381.333 22.3 401.333 20.7 421.333 19.2C441.333 17.7 461.333 16.3 481.6 17.2C501.733 18 522.267 21 542.4 23C562.667 25 582.667 26 602.667 24.5C622.667 23 642.667 19 662.667 15.7C682.667 12.3 702.667 9.7 722.667 9.8C742.667 10 762.667 13 782.667 15.5C802.667 18 822.667 20 842.933 18.5C863.067 17 883.6 12 903.733 11.5C924 11 944 15 964 18.8C984 22.7 1004 26.3 1014 28.2L1024 30V0H1014C1004 0 984 0 964 0C944 0 924 0 903.733 0C883.6 0 863.067 0 842.933 0C822.667 0 802.667 0 782.667 0C762.667 0 742.667 0 722.667 0C702.667 0 682.667 0 662.667 0C642.667 0 622.667 0 602.667 0C582.667 0 562.667 0 542.4 0C522.267 0 501.733 0 481.6 0C461.333 0 441.333 0 421.333 0C401.333 0 381.333 0 361.333 0C341.333 0 321.333 0 301.333 0C281.333 0 261.333 0 241.333 0C221.333 0 201.333 0 181.067 0C160.933 0 140.4 0 120.267 0C100 0 80 0 60 0C40 0 20 0 10 0H0V31Z" fill="#D03267"/>
<path d="M0 7L10 6.8C20 6.7 40 6.3 60 7.3C80 8.3 100 10.7 120.267 12.3C140.4 14 160.933 15 181.067 14C201.333 13 221.333 10 241.333 9C261.333 8 281.333 9 301.333 9.7C321.333 10.3 341.333 10.7 361.333 12.3C381.333 14 401.333 17 421.333 16C441.333 15 461.333 10 481.6 9.3C501.733 8.7 522.267 12.3 542.4 13C562.667 13.7 582.667 11.3 602.667 9.3C622.667 7.3 642.667 5.7 662.667 5.5C682.667 5.3 702.667 6.7 722.667 6.8C742.667 7 762.667 6 782.667 6.5C802.667 7 822.667 9 842.933 10.2C863.067 11.3 883.6 11.7 903.733 11.2C924 10.7 944 9.3 964 9.5C984 9.7 1004 11.3 1014 12.2L1024 13V0H1014C1004 0 984 0 964 0C944 0 924 0 903.733 0C883.6 0 863.067 0 842.933 0C822.667 0 802.667 0 782.667 0C762.667 0 742.667 0 722.667 0C702.667 0 682.667 0 662.667 0C642.667 0 622.667 0 602.667 0C582.667 0 562.667 0 542.4 0C522.267 0 501.733 0 481.6 0C461.333 0 441.333 0 421.333 0C401.333 0 381.333 0 361.333 0C341.333 0 321.333 0 301.333 0C281.333 0 261.333 0 241.333 0C221.333 0 201.333 0 181.067 0C160.933 0 140.4 0 120.267 0C100 0 80 0 60 0C40 0 20 0 10 0H0V7Z" fill="#C62368"/>
</svg>

