<svg width="1024" height="100" viewBox="0 0 1024 100" fill="none" xmlns="http://www.w3.org/2000/svg">
<g clip-path="url(#clip0_42_1988)">
<path d="M0 24L10 24.5C20 25 40 26 60 33.8C80 41.7 100 56.3 120.267 63C140.4 69.7 160.933 68.3 181.067 62.7C201.333 57 221.333 47 241.333 46.7C261.333 46.3 281.333 55.7 301.333 52.2C321.333 48.7 341.333 32.3 361.333 23.7C381.333 15 401.333 14 421.333 20.2C441.333 26.3 461.333 39.7 481.6 40.7C501.733 41.7 522.267 30.3 542.4 26C562.667 21.7 582.667 24.3 602.667 30.5C622.667 36.7 642.667 46.3 662.667 45.5C682.667 44.7 702.667 33.3 722.667 35.5C742.667 37.7 762.667 53.3 782.667 61.3C802.667 69.3 822.667 69.7 842.933 62.3C863.067 55 883.6 40 903.733 40.2C924 40.3 944 55.7 964 55.7C984 55.7 1004 40.3 1014 32.7L1024 25V101H1014C1004 101 984 101 964 101C944 101 924 101 903.733 101C883.6 101 863.067 101 842.933 101C822.667 101 802.667 101 782.667 101C762.667 101 742.667 101 722.667 101C702.667 101 682.667 101 662.667 101C642.667 101 622.667 101 602.667 101C582.667 101 562.667 101 542.4 101C522.267 101 501.733 101 481.6 101C461.333 101 441.333 101 421.333 101C401.333 101 381.333 101 361.333 101C341.333 101 321.333 101 301.333 101C281.333 101 261.333 101 241.333 101C221.333 101 201.333 101 181.067 101C160.933 101 140.4 101 120.267 101C100 101 80 101 60 101C40 101 20 101 10 101H0V24Z" fill="#FA7268"/>
<path d="M0 31L10 33.3C20 35.7 40 40.3 60 44C80 47.7 100 50.3 120.267 49.2C140.4 48 160.933 43 181.067 41.8C201.333 40.7 221.333 43.3 241.333 41.7C261.333 40 281.333 34 301.333 37.2C321.333 40.3 341.333 52.7 361.333 52.5C381.333 52.3 401.333 39.7 421.333 36.8C441.333 34 461.333 41 481.6 42.7C501.733 44.3 522.267 40.7 542.4 39.7C562.667 38.7 582.667 40.3 602.667 40.7C622.667 41 642.667 40 662.667 39.2C682.667 38.3 702.667 37.7 722.667 37.7C742.667 37.7 762.667 38.3 782.667 41C802.667 43.7 822.667 48.3 842.933 51C863.067 53.7 883.6 54.3 903.733 56.5C924 58.7 944 62.3 964 60.8C984 59.3 1004 52.7 1014 49.3L1024 46V101H1014C1004 101 984 101 964 101C944 101 924 101 903.733 101C883.6 101 863.067 101 842.933 101C822.667 101 802.667 101 782.667 101C762.667 101 742.667 101 722.667 101C702.667 101 682.667 101 662.667 101C642.667 101 622.667 101 602.667 101C582.667 101 562.667 101 542.4 101C522.267 101 501.733 101 481.6 101C461.333 101 441.333 101 421.333 101C401.333 101 381.333 101 361.333 101C341.333 101 321.333 101 301.333 101C281.333 101 261.333 101 241.333 101C221.333 101 201.333 101 181.067 101C160.933 101 140.4 101 120.267 101C100 101 80 101 60 101C40 101 20 101 10 101H0V31Z" fill="#F36567"/>
<path d="M0 38L10 41.8C20 45.7 40 53.3 60 60C80 66.7 100 72.3 120.267 72.3C140.4 72.3 160.933 66.7 181.067 64C201.333 61.3 221.333 61.7 241.333 59.5C261.333 57.3 281.333 52.7 301.333 54.7C321.333 56.7 341.333 65.3 361.333 66.7C381.333 68 401.333 62 421.333 58C441.333 54 461.333 52 481.6 55.2C501.733 58.3 522.267 66.7 542.4 66C562.667 65.3 582.667 55.7 602.667 55.8C622.667 56 642.667 66 662.667 68C682.667 70 702.667 64 722.667 62C742.667 60 762.667 62 782.667 63.2C802.667 64.3 822.667 64.7 842.933 67.2C863.067 69.7 883.6 74.3 903.733 76.2C924 78 944 77 964 71.7C984 66.3 1004 56.7 1014 51.8L1024 47V101H1014C1004 101 984 101 964 101C944 101 924 101 903.733 101C883.6 101 863.067 101 842.933 101C822.667 101 802.667 101 782.667 101C762.667 101 742.667 101 722.667 101C702.667 101 682.667 101 662.667 101C642.667 101 622.667 101 602.667 101C582.667 101 562.667 101 542.4 101C522.267 101 501.733 101 481.6 101C461.333 101 441.333 101 421.333 101C401.333 101 381.333 101 361.333 101C341.333 101 321.333 101 301.333 101C281.333 101 261.333 101 241.333 101C221.333 101 201.333 101 181.067 101C160.933 101 140.4 101 120.267 101C100 101 80 101 60 101C40 101 20 101 10 101H0V38Z" fill="#EB5967"/>
<path d="M0 46L10 46.2C20 46.3 40 46.7 60 49.7C80 52.7 100 58.3 120.267 58.7C140.4 59 160.933 54 181.067 56.7C201.333 59.3 221.333 69.7 241.333 72.7C261.333 75.7 281.333 71.3 301.333 70.2C321.333 69 341.333 71 361.333 68.8C381.333 66.7 401.333 60.3 421.333 57C441.333 53.7 461.333 53.3 481.6 57.2C501.733 61 522.267 69 542.4 68.2C562.667 67.3 582.667 57.7 602.667 55.2C622.667 52.7 642.667 57.3 662.667 58.2C682.667 59 702.667 56 722.667 59C742.667 62 762.667 71 782.667 73C802.667 75 822.667 70 842.933 65C863.067 60 883.6 55 903.733 56.8C924 58.7 944 67.3 964 68.5C984 69.7 1004 63.3 1014 60.2L1024 57V101H1014C1004 101 984 101 964 101C944 101 924 101 903.733 101C883.6 101 863.067 101 842.933 101C822.667 101 802.667 101 782.667 101C762.667 101 742.667 101 722.667 101C702.667 101 682.667 101 662.667 101C642.667 101 622.667 101 602.667 101C582.667 101 562.667 101 542.4 101C522.267 101 501.733 101 481.6 101C461.333 101 441.333 101 421.333 101C401.333 101 381.333 101 361.333 101C341.333 101 321.333 101 301.333 101C281.333 101 261.333 101 241.333 101C221.333 101 201.333 101 181.067 101C160.933 101 140.4 101 120.267 101C100 101 80 101 60 101C40 101 20 101 10 101H0V46Z" fill="#E34C67"/>
<path d="M0 62.9999L10 65.2999C20 67.6999 40 72.2999 60 75.7999C80 79.2999 100 81.6999 120.267 82.1999C140.4 82.6999 160.933 81.2999 181.067 79.4999C201.333 77.6999 221.333 75.2999 241.333 72.6999C261.333 69.9999 281.333 66.9999 301.333 68.4999C321.333 69.9999 341.333 75.9999 361.333 76.6999C381.333 77.2999 401.333 72.6999 421.333 68.6999C441.333 64.6999 461.333 61.2999 481.6 62.9999C501.733 64.6999 522.267 71.2999 542.4 73.9999C562.667 76.6999 582.667 75.2999 602.667 76.1999C622.667 76.9999 642.667 79.9999 662.667 80.2999C682.667 80.6999 702.667 78.2999 722.667 77.9999C742.667 77.6999 762.667 79.2999 782.667 80.2999C802.667 81.2999 822.667 81.6999 842.933 77.6999C863.067 73.6999 883.6 65.2999 903.733 62.9999C924 60.6999 944 64.2999 964 68.6999C984 72.9999 1004 77.9999 1014 80.4999L1024 82.9999V101H1014C1004 101 984 101 964 101C944 101 924 101 903.733 101C883.6 101 863.067 101 842.933 101C822.667 101 802.667 101 782.667 101C762.667 101 742.667 101 722.667 101C702.667 101 682.667 101 662.667 101C642.667 101 622.667 101 602.667 101C582.667 101 562.667 101 542.4 101C522.267 101 501.733 101 481.6 101C461.333 101 441.333 101 421.333 101C401.333 101 381.333 101 361.333 101C341.333 101 321.333 101 301.333 101C281.333 101 261.333 101 241.333 101C221.333 101 201.333 101 181.067 101C160.933 101 140.4 101 120.267 101C100 101 80 101 60 101C40 101 20 101 10 101H0V62.9999Z" fill="#DA3F67"/>
<path d="M0 85L10 83.5C20 82 40 79 60 78.2C80 77.3 100 78.7 120.267 78C140.4 77.3 160.933 74.7 181.067 75.5C201.333 76.3 221.333 80.7 241.333 83.2C261.333 85.7 281.333 86.3 301.333 84.2C321.333 82 341.333 77 361.333 76.5C381.333 76 401.333 80 421.333 82.7C441.333 85.3 461.333 86.7 481.6 84.7C501.733 82.7 522.267 77.3 542.4 75C562.667 72.7 582.667 73.3 602.667 72.5C622.667 71.7 642.667 69.3 662.667 69.3C682.667 69.3 702.667 71.7 722.667 71.8C742.667 72 762.667 70 782.667 72.2C802.667 74.3 822.667 80.7 842.933 81.8C863.067 83 883.6 79 903.733 76.2C924 73.3 944 71.7 964 70.7C984 69.7 1004 69.3 1014 69.2L1024 69V101H1014C1004 101 984 101 964 101C944 101 924 101 903.733 101C883.6 101 863.067 101 842.933 101C822.667 101 802.667 101 782.667 101C762.667 101 742.667 101 722.667 101C702.667 101 682.667 101 662.667 101C642.667 101 622.667 101 602.667 101C582.667 101 562.667 101 542.4 101C522.267 101 501.733 101 481.6 101C461.333 101 441.333 101 421.333 101C401.333 101 381.333 101 361.333 101C341.333 101 321.333 101 301.333 101C281.333 101 261.333 101 241.333 101C221.333 101 201.333 101 181.067 101C160.933 101 140.4 101 120.267 101C100 101 80 101 60 101C40 101 20 101 10 101H0V85Z" fill="#D03267"/>
<path d="M0 85L10 84.3C20 83.7 40 82.3 60 81.8C80 81.3 100 81.7 120.267 83.5C140.4 85.3 160.933 88.7 181.067 89.5C201.333 90.3 221.333 88.7 241.333 86.7C261.333 84.7 281.333 82.3 301.333 82C321.333 81.7 341.333 83.3 361.333 83.2C381.333 83 401.333 81 421.333 79.8C441.333 78.7 461.333 78.3 481.6 80C501.733 81.7 522.267 85.3 542.4 86.3C562.667 87.3 582.667 85.7 602.667 84C622.667 82.3 642.667 80.7 662.667 82.2C682.667 83.7 702.667 88.3 722.667 90C742.667 91.7 762.667 90.3 782.667 88.8C802.667 87.3 822.667 85.7 842.933 84.8C863.067 84 883.6 84 903.733 84C924 84 944 84 964 85.2C984 86.3 1004 88.7 1014 89.8L1024 91V101H1014C1004 101 984 101 964 101C944 101 924 101 903.733 101C883.6 101 863.067 101 842.933 101C822.667 101 802.667 101 782.667 101C762.667 101 742.667 101 722.667 101C702.667 101 682.667 101 662.667 101C642.667 101 622.667 101 602.667 101C582.667 101 562.667 101 542.4 101C522.267 101 501.733 101 481.6 101C461.333 101 441.333 101 421.333 101C401.333 101 381.333 101 361.333 101C341.333 101 321.333 101 301.333 101C281.333 101 261.333 101 241.333 101C221.333 101 201.333 101 181.067 101C160.933 101 140.4 101 120.267 101C100 101 80 101 60 101C40 101 20 101 10 101H0V85Z" fill="#C62368"/>
</g>
<defs>
<clipPath id="clip0_42_1988">
<rect width="1024" height="100" fill="white"/>
</clipPath>
</defs>
</svg>